<svg xmlns="http://www.w3.org/2000/svg" width="100" height="100" viewBox="0 0 100 100">
  <defs>
    <linearGradient id="bg" x1="0" y1="0" x2="1" y2="1">
      <stop offset="0" stop-color="#22536E"/>
      <stop offset="1" stop-color="#132B3E"/>
    </linearGradient>
    <linearGradient id="g" x1="0" y1="0" x2="0" y2="1">
      <stop offset="0" stop-color="#E6CB86"/>
      <stop offset="1" stop-color="#B98F3E"/>
    </linearGradient>
    <clipPath id="c"><rect width="100" height="100" rx="22"/></clipPath>
  </defs>
  <rect width="100" height="100" rx="22" fill="url(#bg)"/>
  <g clip-path="url(#c)" fill="none" stroke="#E6CB86" stroke-opacity=".10" stroke-width="1.2">
    <rect x="68" y="68" width="44" height="44"/>
    <rect x="68" y="68" width="44" height="44" transform="rotate(45 90 90)"/>
    <rect x="-12" y="-12" width="30" height="30"/>
    <rect x="-12" y="-12" width="30" height="30" transform="rotate(45 3 3)"/>
  </g>
  <rect x="4.5" y="4.5" width="91" height="91" rx="18" fill="none" stroke="#C8A454" stroke-opacity=".45" stroke-width="1"/>
  <g stroke-linecap="round" stroke-linejoin="round">

    <path d="M26 56V48C26 34 36 24 50 24C64 24 74 34 74 48V56" fill="none" stroke="#F3EBDA" stroke-width="3.4"/>
    <rect x="21" y="48" width="12" height="20" rx="5" fill="url(#g)"/>
    <rect x="67" y="48" width="12" height="20" rx="5" fill="url(#g)"/>
    <path d="M73 68C73 74 67 78 58 78H52" fill="none" stroke="#F3EBDA" stroke-width="3"/>
    <rect x="44" y="74" width="10" height="7" rx="3.5" fill="url(#g)"/>
    <path d="M40 40H60C62 40 63 41 63 43V53C63 55 62 56 60 56H50L44 61V56H40C38 56 37 55 37 53V43C37 41 38 40 40 40Z" fill="#5FB3CF"/>
    <circle cx="44" cy="48" r="1.8" fill="#17354A"/><circle cx="50" cy="48" r="1.8" fill="#17354A"/><circle cx="56" cy="48" r="1.8" fill="#17354A"/>
  </g>
</svg>
